<svg xmlns="http://www.w3.org/2000/svg" width="21" height="19" fill="none" viewBox="0 0 21 19">
    <path fill="#8D8A8A" fill-rule="evenodd" d="M15.58 2.607h3.17c1.1 0 2 .868 2 1.929v11.571c0 1.06-.9 1.929-2 1.929h-16c-1.1 0-2-.868-2-1.929V4.536c0-1.061.9-1.929 2-1.929h3.17L7.75.68h6l1.83 1.928zm-12.83 13.5h16V4.536H14.7l-1.83-1.929H8.63L6.8 4.536H2.75v11.571zm8-10.607c-2.76 0-5 2.16-5 4.821 0 2.662 2.24 4.822 5 4.822s5-2.16 5-4.822c0-2.661-2.24-4.821-5-4.821zm-3 4.821c0 1.591 1.35 2.893 3 2.893s3-1.302 3-2.893c0-1.59-1.35-2.892-3-2.892s-3 1.301-3 2.892z" clip-rule="evenodd"/>
</svg>
