<svg xmlns="http://www.w3.org/2000/svg" width="18" height="20" fill="none" viewBox="0 0 18 20">
    <path fill="#000" fill-opacity=".54" fill-rule="evenodd" d="M15.75 13.846V8.718c0-3.149-1.834-5.785-5.063-6.482v-.698C10.688.688 9.934 0 9 0S7.312.687 7.312 1.538v.698C4.095 2.933 2.25 5.559 2.25 8.718v5.128L0 15.897v1.026h18v-1.026l-2.25-2.05zM9 20c1.238 0 2.25-.923 2.25-2.051h-4.5C6.75 19.077 7.763 20 9 20zm-4.5-5.128h9V8.718c0-2.544-1.699-4.615-4.5-4.615S4.5 6.174 4.5 8.718v6.154z" clip-rule="evenodd"/>
</svg>
